# ProBuilder 5.2.2
# https://unity3d.com/unity/features/worldbuilding/probuilder
# 2024-05-23 오후 1:42:52

mtllib ./Floor_2x2x2.mtl
o Floor_2x2x2

g Floor_2x2x2
v 1 -2 1
v -1 -2 1
v 1 0 1
v -1 0 1
v -1 -2 -1
v -1 0 -1
v 1 -2 -1
v 1 0 -1

vt 0.9999999 0
vt -1.192093E-07 0
vt 0.9999999 1
vt -1.192093E-07 1

vn 0 0 1
vn -1 0 0
vn 0 0 -1
vn 1 0 0
vn 0 1 0
vn 0 -1 0

usemtl CheckerMap
f 3/3/1 4/4/1 2/2/1 1/1/1
f 4/3/2 6/4/2 5/2/2 2/1/2
f 6/3/3 8/4/3 7/2/3 5/1/3
f 8/3/4 3/4/4 1/2/4 7/1/4
f 8/3/5 6/4/5 4/2/5 3/1/5
f 1/3/6 2/4/6 5/2/6 7/1/6

